<?xml version="1.0" encoding="utf-8"?>
<!-- Generator: Adobe Illustrator 21.0.0, SVG Export Plug-In . SVG Version: 6.00 Build 0)  -->
<svg version="1.1" xmlns="http://www.w3.org/2000/svg" xmlns:xlink="http://www.w3.org/1999/xlink" x="0px" y="0px"
	 viewBox="0 0 192.1 198.9" style="enable-background:new 0 0 192.1 198.9;" xml:space="preserve">
<style type="text/css">
	.st0{enable-background:new    ;}
	.st1{fill:#FFFFFF;}
	.st2{fill:none;stroke:#FFFFFF;stroke-width:6.7432;stroke-miterlimit:10;}
	.st3{fill:#494949;stroke:#FFFFFF;stroke-width:0.5619;stroke-miterlimit:10;}
	.st4{fill:#1C2A63;}
	.st5{fill:none;stroke:#1C2A63;stroke-width:6.7432;stroke-miterlimit:10;}
	.st6{font-family:'Futura-Medium';}
	.st7{font-size:47.9859px;}
</style>
<g id="Layer_1">
	<g>
		<text transform="matrix(1 0 0 1 598.778 -143.1251)" class="st1 st6 st7">8Pounds</text>
		<g>
			<circle class="st2" cx="510.3" cy="-155.3" r="62"/>
			<path class="st3" d="M515.1-143.1c0.1-0.1,0.2-0.2,0.2-0.3c-0.3-1.5-0.8-2.9-1.6-4.3l-0.7-0.5C514-146.7,514.7-145,515.1-143.1z"
				/>
			<g>
				<path class="st1" d="M496.8-154c-10.3,1.5-17.5,11.1-16,21.4c1.5,10.3,11.1,17.5,21.4,16c6-0.9,11-4.5,13.8-9.4
					c2.6,6.9,10.3,11.3,18.6,10.1c9.5-1.4,16.1-9.4,14.9-18c-1.2-8.6-9.9-14.4-19.4-13.1c-5,0.7-9.3,3.4-12,7
					c0.2,0.8,0.2,1.6,0.2,2.5c0.6-1,1.5-1.9,2.3-2.8c1.9-1.7,4.2-2.6,6.6-3.3c2.6-0.7,5.3-0.7,7.9,0.1c0.7,0.2,1.4,0.3,2.1,0.5
					c2.1,1.1,4.1,2.2,5.5,4.1c2.8,3.8,3.3,7.8,1.1,12.1c-0.8,1.5-1.8,2.7-3.2,3.7c-1.7,1.3-3.6,2.3-5.7,2.8
					c-3.3,0.7-6.5,0.8-9.7-0.4c-1.6-0.6-3.2-1.1-4.4-2.2c-0.4-0.4-0.9-0.8-1.2-1.2c-0.2-0.3-0.4-0.6-0.7-0.9
					c-0.9-1.2-1.5-2.4-1.9-3.6c-0.2-0.8-0.4-1.5-0.5-2.3c-0.4,0.8-0.9,1.6-1.5,2.3c-0.5,0.7-1.2,1.3-1.9,1.8
					c-1.9,1.5-3.9,2.7-6.3,3.2c-3.6,0.8-7.2,0.9-10.7-0.6c-1.7-0.7-3.5-1.3-5-2.7c-0.5-0.5-1-0.9-1.4-1.5c-0.2-0.4-0.5-0.8-0.8-1.1
					c-3.2-4.7-3.6-9.7-1.1-14.8c0.7-1.4,1.8-2.5,2.7-3.6c2.1-2,4.6-3.1,7.3-3.8c2.8-0.7,5.5-0.7,8.3,0.1"/>
				<path class="st1" d="M448.2-169.7c0,0,26.4,8.1,27.3,8c0,0,1.7,0.5,3.3-4.3c0,0,13.4-46.1,58.6-23.9c0,0,28.2,15.2,11.1,42.2
					c0,0,7.7-12.5-2.4-26.9c0,0-19-25.2-46.9-11.7c0,0-12.7,6.1-18.8,26.4c0,0-1,2.1,0.5,2.6c0,0,37,9.9,56,10.3
					c0,0-4.4,1.4-20.3-0.8c0,0-45.8-6.1-64-13.6C452.7-161.6,446.3-163.3,448.2-169.7z"/>
				<path class="st1" d="M488.2-161.5c0,0,20.7,16.8,26.5,20.6l1.6-3.6c0,0-21.7-18.5-24.7-23.2L488.2-161.5z"/>
				<path class="st1" d="M517-149.1l0.2,2.8c0,0,29-3.8,31.6-4.1l-4.1-5.5C544.6-155.9,521.5-149.7,517-149.1z"/>
			</g>
			<path class="st3" d="M499.5-131"/>
		</g>
	</g>
	<g>
		<text transform="matrix(1 0 0 1 599.2612 101.5988)" class="st4 st6 st7">8Pounds</text>
		<g>
			<circle class="st5" cx="510.8" cy="89.4" r="62"/>
			<path class="st3" d="M515.6,101.6c0.1-0.1,0.2-0.2,0.2-0.3c-0.3-1.5-0.8-2.9-1.6-4.3l-0.7-0.5C514.5,98,515.2,99.8,515.6,101.6z"
				/>
			<g>
				<path class="st4" d="M497.3,90.7c-10.3,1.5-17.5,11.1-16,21.4c1.5,10.3,11.1,17.5,21.4,16c6-0.9,11-4.5,13.8-9.4
					c2.6,6.9,10.3,11.3,18.6,10.1c9.5-1.4,16.1-9.4,14.9-18c-1.2-8.6-9.9-14.4-19.4-13.1c-5,0.7-9.3,3.4-12,7
					c0.2,0.8,0.2,1.6,0.2,2.5c0.6-1,1.5-1.9,2.3-2.8c1.9-1.7,4.2-2.6,6.6-3.3c2.6-0.7,5.3-0.7,7.9,0.1c0.7,0.2,1.4,0.3,2.1,0.5
					c2.1,1.1,4.1,2.2,5.5,4.1c2.8,3.8,3.3,7.8,1.1,12.1c-0.8,1.5-1.8,2.7-3.2,3.7c-1.7,1.3-3.6,2.3-5.7,2.8
					c-3.3,0.7-6.5,0.8-9.7-0.4c-1.6-0.6-3.2-1.1-4.4-2.2c-0.4-0.4-0.9-0.8-1.2-1.2c-0.2-0.3-0.4-0.6-0.7-0.9
					c-0.9-1.2-1.5-2.4-1.9-3.6c-0.2-0.8-0.4-1.5-0.5-2.3c-0.4,0.8-0.9,1.6-1.5,2.3c-0.5,0.7-1.2,1.3-1.9,1.8
					c-1.9,1.5-3.9,2.7-6.3,3.2c-3.6,0.8-7.2,0.9-10.7-0.6c-1.7-0.7-3.5-1.3-5-2.7c-0.5-0.5-1-0.9-1.4-1.5c-0.2-0.4-0.5-0.8-0.8-1.1
					c-3.2-4.7-3.6-9.7-1.1-14.8c0.7-1.4,1.8-2.5,2.7-3.6c2.1-2,4.6-3.1,7.3-3.8c2.8-0.7,5.5-0.7,8.3,0.1"/>
				<path class="st4" d="M448.7,75c0,0,26.4,8.1,27.3,8c0,0,1.7,0.5,3.3-4.3c0,0,13.4-46.1,58.6-23.9c0,0,28.2,15.2,11.1,42.2
					c0,0,7.7-12.5-2.4-26.9c0,0-19-25.2-46.9-11.7c0,0-12.7,6.1-18.8,26.4c0,0-1,2.1,0.5,2.6c0,0,37,9.9,56,10.3
					c0,0-4.4,1.4-20.3-0.8c0,0-45.8-6.1-64-13.6C453.2,83.2,446.7,81.4,448.7,75z"/>
				<path class="st4" d="M488.7,83.2c0,0,20.7,16.8,26.5,20.6l1.6-3.6c0,0-21.7-18.5-24.7-23.2L488.7,83.2z"/>
				<path class="st4" d="M517.5,95.6l0.2,2.8c0,0,29-3.8,31.6-4.1l-4.1-5.5C545.1,88.9,522,95,517.5,95.6z"/>
			</g>
			<path class="st3" d="M500,113.7"/>
		</g>
	</g>
	<g>
		<text transform="matrix(1 0 0 1 4.2205 179.0522)" class="st4 st6 st7">8Pounds</text>
		<g>
			<circle class="st5" cx="96.3" cy="67.9" r="62"/>
			<path class="st3" d="M101.1,80.1c0.1-0.1,0.2-0.2,0.2-0.3c-0.3-1.5-0.8-2.9-1.6-4.3L99.1,75C100,76.5,100.7,78.3,101.1,80.1z"/>
			<g>
				<path class="st4" d="M82.9,69.2c-10.3,1.5-17.5,11.1-16,21.4c1.5,10.3,11.1,17.5,21.4,16c6-0.9,11-4.5,13.8-9.4
					c2.6,6.9,10.3,11.3,18.6,10.1c9.5-1.4,16.1-9.4,14.9-18c-1.2-8.6-9.9-14.4-19.4-13.1c-5,0.7-9.3,3.4-12,7
					c0.2,0.8,0.2,1.6,0.2,2.5c0.6-1,1.5-1.9,2.3-2.8c1.9-1.7,4.2-2.6,6.6-3.3c2.6-0.7,5.3-0.7,7.9,0.1c0.7,0.2,1.4,0.3,2.1,0.5
					c2.1,1.1,4.1,2.2,5.5,4.1c2.8,3.8,3.3,7.8,1.1,12.1c-0.8,1.5-1.8,2.7-3.2,3.7c-1.7,1.3-3.6,2.3-5.7,2.8
					c-3.3,0.7-6.5,0.8-9.7-0.4c-1.6-0.6-3.2-1.1-4.4-2.2c-0.4-0.4-0.9-0.8-1.2-1.2c-0.2-0.3-0.4-0.6-0.7-0.9
					c-0.9-1.2-1.5-2.4-1.9-3.6c-0.2-0.8-0.4-1.5-0.5-2.3c-0.4,0.8-0.9,1.6-1.5,2.3c-0.5,0.7-1.2,1.3-1.9,1.8
					c-1.9,1.5-3.9,2.7-6.3,3.2c-3.6,0.8-7.2,0.9-10.7-0.6c-1.7-0.7-3.5-1.3-5-2.7c-0.5-0.5-1-0.9-1.4-1.5c-0.2-0.4-0.5-0.8-0.8-1.1
					c-3.2-4.7-3.6-9.7-1.1-14.8c0.7-1.4,1.8-2.5,2.7-3.6c2.1-2,4.6-3.1,7.3-3.8c2.8-0.7,5.5-0.7,8.3,0.1"/>
				<path class="st4" d="M34.2,53.5c0,0,26.4,8.1,27.3,8c0,0,1.7,0.5,3.3-4.3c0,0,13.4-46.1,58.6-23.9c0,0,28.2,15.2,11.1,42.2
					c0,0,7.7-12.5-2.4-26.9c0,0-19-25.2-46.9-11.7c0,0-12.7,6.1-18.8,26.4c0,0-1,2.1,0.5,2.6c0,0,37,9.9,56,10.3
					c0,0-4.4,1.4-20.3-0.8c0,0-45.8-6.1-64-13.6C38.7,61.7,32.3,59.9,34.2,53.5z"/>
				<path class="st4" d="M74.2,61.7c0,0,20.7,16.8,26.5,20.6l1.6-3.6c0,0-21.7-18.5-24.7-23.2L74.2,61.7z"/>
				<path class="st4" d="M103,74.1l0.2,2.8c0,0,29-3.8,31.6-4.1l-4.1-5.5C130.7,67.4,107.5,73.5,103,74.1z"/>
			</g>
			<path class="st3" d="M85.6,92.2"/>
		</g>
	</g>
	<g>
		<text transform="matrix(1 0 0 1 4.2207 -86.9571)" class="st1 st6 st7">8Pounds</text>
		<g>
			<circle class="st2" cx="96.3" cy="-198.1" r="62"/>
			<path class="st3" d="M101.1-185.9c0.1-0.1,0.2-0.2,0.2-0.3c-0.3-1.5-0.8-2.9-1.6-4.3l-0.7-0.5C100-189.5,100.7-187.7,101.1-185.9
				z"/>
			<g>
				<path class="st1" d="M82.9-196.8c-10.3,1.5-17.5,11.1-16,21.4c1.5,10.3,11.1,17.5,21.4,16c6-0.9,11-4.5,13.8-9.4
					c2.6,6.9,10.3,11.3,18.6,10.1c9.5-1.4,16.1-9.4,14.9-18c-1.2-8.6-9.9-14.4-19.4-13.1c-5,0.7-9.3,3.4-12,7
					c0.2,0.8,0.2,1.6,0.2,2.5c0.6-1,1.5-1.9,2.3-2.8c1.9-1.7,4.2-2.6,6.6-3.3c2.6-0.7,5.3-0.7,7.9,0.1c0.7,0.2,1.4,0.3,2.1,0.5
					c2.1,1.1,4.1,2.2,5.5,4.1c2.8,3.8,3.3,7.8,1.1,12.1c-0.8,1.5-1.8,2.7-3.2,3.7c-1.7,1.3-3.6,2.3-5.7,2.8
					c-3.3,0.7-6.5,0.8-9.7-0.4c-1.6-0.6-3.2-1.1-4.4-2.2c-0.4-0.4-0.9-0.8-1.2-1.2c-0.2-0.3-0.4-0.6-0.7-0.9
					c-0.9-1.2-1.5-2.4-1.9-3.6c-0.2-0.8-0.4-1.5-0.5-2.3c-0.4,0.8-0.9,1.6-1.5,2.3c-0.5,0.7-1.2,1.3-1.9,1.8
					c-1.9,1.5-3.9,2.7-6.3,3.2c-3.6,0.8-7.2,0.9-10.7-0.6c-1.7-0.7-3.5-1.3-5-2.7c-0.5-0.5-1-0.9-1.4-1.5c-0.2-0.4-0.5-0.8-0.8-1.1
					c-3.2-4.7-3.6-9.7-1.1-14.8c0.7-1.4,1.8-2.5,2.7-3.6c2.1-2,4.6-3.1,7.3-3.8c2.8-0.7,5.5-0.7,8.3,0.1"/>
				<path class="st1" d="M34.2-212.5c0,0,26.4,8.1,27.3,8c0,0,1.7,0.5,3.3-4.3c0,0,13.4-46.1,58.6-23.9c0,0,28.2,15.2,11.1,42.2
					c0,0,7.7-12.5-2.4-26.9c0,0-19-25.2-46.9-11.7c0,0-12.7,6.1-18.8,26.4c0,0-1,2.1,0.5,2.6c0,0,37,9.9,56,10.3
					c0,0-4.4,1.4-20.3-0.8c0,0-45.8-6.1-64-13.6C38.7-204.3,32.3-206.1,34.2-212.5z"/>
				<path class="st1" d="M74.2-204.3c0,0,20.7,16.8,26.5,20.6l1.6-3.6c0,0-21.7-18.5-24.7-23.2L74.2-204.3z"/>
				<path class="st1" d="M103-191.9l0.2,2.8c0,0,29-3.8,31.6-4.1l-4.1-5.5C130.7-198.6,107.5-192.5,103-191.9z"/>
			</g>
			<path class="st3" d="M85.6-173.8"/>
		</g>
	</g>
</g>
<g id="Layer_2">
</g>
</svg>
