<?xml version="1.0" encoding="utf-8"?>
<!-- Generator: Adobe Illustrator 16.0.4, SVG Export Plug-In . SVG Version: 6.00 Build 0)  -->
<!DOCTYPE svg PUBLIC "-//W3C//DTD SVG 1.1//EN" "http://www.w3.org/Graphics/SVG/1.1/DTD/svg11.dtd">
<svg version="1.1" id="Background" xmlns="http://www.w3.org/2000/svg" xmlns:xlink="http://www.w3.org/1999/xlink" x="0px" y="0px"
	 width="1847.173px" height="807.817px" viewBox="0 0 1847.173 807.817" enable-background="new 0 0 1847.173 807.817"
	 xml:space="preserve">
<g>
	<path fill="none" d="M13.562,723.772c0,0,770.704-227.334,1817.853,0"/>
	<g>
		<path fill="none" d="M13.562,397.236c0,0,770.703-227.331,1817.852,0"/>
		<text transform="matrix(0.9971 -0.0765 0.0765 0.9971 429.1279 319.4634)"><tspan x="0" y="0" fill="#969696" font-family="'GrandHotel-Regular'" font-size="343.4655">W</tspan><tspan x="288.008" y="2.295" fill="#969696" font-family="'GrandHotel-Regular'" font-size="343.4655" rotate="2.532">i</tspan><tspan x="366.561" y="4.883" fill="#969696" font-family="'GrandHotel-Regular'" font-size="343.4655" rotate="4.327">n</tspan><tspan x="554.627" y="19.753" fill="#969696" font-family="'GrandHotel-Regular'" font-size="343.4655" rotate="6.311">t</tspan><tspan x="665.842" y="31.553" fill="#969696" font-family="'GrandHotel-Regular'" font-size="343.4655" rotate="8.154">e</tspan><tspan x="834.327" y="56.146" fill="#969696" font-family="'GrandHotel-Regular'" font-size="343.4655" rotate="9.976">r</tspan></text>
		<g>
			<g>
				<g>
					<path fill="#969696" d="M1661.903,268.437c-51.646-2.226-40.33,64.056,9.809,61.144c40.676-2.349,60.391-63.852,31.906-91.127
						c-51.98-49.854-127.168,1.498-167.516,39.497c-35.955,33.887-99.635,41.584-120.416-13.775
						c-7.637-20.362-0.078-43.588,16.91-56.325c14.488-10.864,38.342-8.41,52.4,1.465c11.223,13.685,9.18,24.918-6.129,33.737
						c-8.551,2.372-16.855,2.062-24.895-0.965c-5.947-1.588-7.617,7.829-1.713,9.383c43.305,11.487,71.949-44.511,25.385-56.873
						c-53.721-14.25-90.068,35.579-66.027,84.132c12.262,24.796,39.504,34.605,65.328,36.619
						c29.412,2.289,51.893-17.492,71.822-36.267c35.732-33.656,96.383-72.662,144.344-37.516
						c17.752,13.04,16.582,38.105,8.395,55.784c-5.727,12.395-17.654,20.044-30.627,22.727c-36.965,7.625-46.621-43.791-8.129-42.14
						C1668.878,278.203,1667.978,268.689,1661.903,268.437L1661.903,268.437z"/>
				</g>
			</g>
			<g>
				<g>
					<path fill="#969696" d="M183.042,268.437c51.67-2.226,40.344,64.056-9.799,61.144c-40.658-2.349-60.359-63.852-31.902-91.127
						c51.982-49.854,127.168,1.498,167.512,39.497c35.959,33.887,99.611,41.584,120.398-13.775
						c7.645-20.362,0.09-43.588-16.902-56.325c-14.484-10.864-38.328-8.41-52.391,1.465c-11.219,13.685-9.186,24.918,6.137,33.737
						c8.549,2.372,16.857,2.062,24.891-0.965c5.939-1.588,7.629,7.829,1.709,9.383c-43.305,11.487-71.967-44.511-25.385-56.873
						c53.715-14.25,90.062,35.579,66.027,84.132c-12.266,24.796-39.531,34.605-65.324,36.619
						c-29.418,2.289-51.895-17.492-71.809-36.267c-35.746-33.656-96.404-72.662-144.35-37.516
						c-17.781,13.04-16.605,38.105-8.422,55.784c5.75,12.395,17.672,20.044,30.646,22.727c36.965,7.625,46.617-43.791,8.129-42.14
						C176.081,278.203,176.962,268.689,183.042,268.437L183.042,268.437z"/>
				</g>
			</g>
		</g>
	</g>
	<path fill="none" d="M13.562,759.263c0,0,770.704-227.334,1817.853,0"/>
	<text transform="matrix(0.9837 -0.1796 0.1796 0.9837 91.7695 737.5557)"><tspan x="0" y="0" fill="#969696" font-family="'GrandHotel-Regular'" font-size="443.992">S</tspan><tspan x="214.113" y="-0.298" fill="#969696" font-family="'GrandHotel-Regular'" font-size="443.992" rotate="3.751">o</tspan><tspan x="452.953" y="15.32" fill="#969696" font-family="'GrandHotel-Regular'" font-size="443.992" rotate="7.197">u</tspan><tspan x="692.487" y="46.959" fill="#969696" font-family="'GrandHotel-Regular'" font-size="443.992" rotate="9.532">l</tspan><tspan x="793.578" y="63.324" fill="#969696" font-family="'GrandHotel-Regular'" font-size="443.992" rotate="11.365">s</tspan><tspan x="963.292" y="97.66" fill="#969696" font-family="'GrandHotel-Regular'" font-size="443.992" rotate="13.447">t</tspan><tspan x="1104.112" y="131.613" fill="#969696" font-family="'GrandHotel-Regular'" font-size="443.992" rotate="15.052">i</tspan><tspan x="1202.265" y="157.138" fill="#969696" font-family="'GrandHotel-Regular'" font-size="443.992" rotate="16.98">c</tspan><tspan x="1389.357" y="213.903" fill="#969696" font-family="'GrandHotel-Regular'" font-size="443.992" rotate="19.653">e</tspan></text>
</g>
<g>
	<path fill="none" d="M33.32,712.93c0,0,770.704-227.334,1817.853,0"/>
	<g>
		<path fill="none" d="M33.32,386.394c0,0,770.703-227.331,1817.852,0"/>
		<text transform="matrix(0.9971 -0.0765 0.0765 0.9971 448.8857 308.6206)"><tspan x="0" y="0" fill="#FFFFFF" font-family="'GrandHotel-Regular'" font-size="343.4655">W</tspan><tspan x="288.01" y="2.295" fill="#FFFFFF" font-family="'GrandHotel-Regular'" font-size="343.4655" rotate="2.532">i</tspan><tspan x="366.563" y="4.883" fill="#FFFFFF" font-family="'GrandHotel-Regular'" font-size="343.4655" rotate="4.327">n</tspan><tspan x="554.629" y="19.753" fill="#FFFFFF" font-family="'GrandHotel-Regular'" font-size="343.4655" rotate="6.311">t</tspan><tspan x="665.844" y="31.553" fill="#FFFFFF" font-family="'GrandHotel-Regular'" font-size="343.4655" rotate="8.154">e</tspan><tspan x="834.327" y="56.146" fill="#FFFFFF" font-family="'GrandHotel-Regular'" font-size="343.4655" rotate="9.976">r</tspan></text>
		<g>
			<g>
				<g>
					<path fill="#FFFFFF" d="M1681.662,257.594c-51.646-2.226-40.33,64.056,9.809,61.144c40.676-2.349,60.391-63.852,31.906-91.127
						c-51.98-49.854-127.168,1.498-167.516,39.497c-35.955,33.887-99.635,41.584-120.416-13.775
						c-7.637-20.362-0.078-43.588,16.91-56.325c14.488-10.864,38.342-8.41,52.4,1.465c11.223,13.685,9.18,24.918-6.129,33.737
						c-8.551,2.372-16.855,2.062-24.895-0.965c-5.947-1.588-7.617,7.829-1.713,9.383c43.305,11.487,71.949-44.511,25.385-56.873
						c-53.721-14.25-90.068,35.579-66.027,84.132c12.262,24.796,39.504,34.605,65.328,36.619
						c29.412,2.289,51.893-17.492,71.822-36.267c35.732-33.656,96.383-72.662,144.344-37.516
						c17.752,13.04,16.582,38.105,8.395,55.784c-5.727,12.395-17.654,20.044-30.627,22.727c-36.965,7.625-46.621-43.791-8.129-42.14
						C1688.637,267.36,1687.736,257.846,1681.662,257.594L1681.662,257.594z"/>
				</g>
			</g>
			<g>
				<g>
					<path fill="#FFFFFF" d="M202.801,257.594c51.67-2.226,40.344,64.056-9.799,61.144c-40.658-2.349-60.359-63.852-31.902-91.127
						c51.982-49.854,127.168,1.498,167.512,39.497c35.959,33.887,99.611,41.584,120.398-13.775
						c7.645-20.362,0.09-43.588-16.902-56.325c-14.484-10.864-38.328-8.41-52.391,1.465c-11.219,13.685-9.186,24.918,6.137,33.737
						c8.549,2.372,16.857,2.062,24.891-0.965c5.939-1.588,7.629,7.829,1.709,9.383c-43.305,11.487-71.967-44.511-25.385-56.873
						c53.715-14.25,90.062,35.579,66.027,84.132c-12.266,24.796-39.531,34.605-65.324,36.619
						c-29.418,2.289-51.895-17.492-71.809-36.267c-35.746-33.656-96.404-72.662-144.35-37.516
						c-17.781,13.04-16.605,38.105-8.422,55.784c5.75,12.395,17.672,20.044,30.646,22.727c36.965,7.625,46.617-43.791,8.129-42.14
						C195.84,267.36,196.721,257.846,202.801,257.594L202.801,257.594z"/>
				</g>
			</g>
		</g>
	</g>
	<path fill="none" d="M33.32,748.42c0,0,770.704-227.334,1817.853,0"/>
	<text transform="matrix(0.9837 -0.1796 0.1796 0.9837 111.5283 726.7129)"><tspan x="0" y="0" fill="#FFFFFF" font-family="'GrandHotel-Regular'" font-size="443.992">S</tspan><tspan x="214.113" y="-0.298" fill="#FFFFFF" font-family="'GrandHotel-Regular'" font-size="443.992" rotate="3.751">o</tspan><tspan x="452.953" y="15.32" fill="#FFFFFF" font-family="'GrandHotel-Regular'" font-size="443.992" rotate="7.197">u</tspan><tspan x="692.487" y="46.959" fill="#FFFFFF" font-family="'GrandHotel-Regular'" font-size="443.992" rotate="9.532">l</tspan><tspan x="793.578" y="63.324" fill="#FFFFFF" font-family="'GrandHotel-Regular'" font-size="443.992" rotate="11.365">s</tspan><tspan x="963.292" y="97.66" fill="#FFFFFF" font-family="'GrandHotel-Regular'" font-size="443.992" rotate="13.447">t</tspan><tspan x="1104.112" y="131.613" fill="#FFFFFF" font-family="'GrandHotel-Regular'" font-size="443.992" rotate="15.052">i</tspan><tspan x="1202.265" y="157.138" fill="#FFFFFF" font-family="'GrandHotel-Regular'" font-size="443.992" rotate="16.98">c</tspan><tspan x="1389.357" y="213.903" fill="#FFFFFF" font-family="'GrandHotel-Regular'" font-size="443.992" rotate="19.653">e</tspan></text>
</g>
</svg>
