<?xml version="1.0" encoding="utf-8"?>
<!-- Generator: Adobe Illustrator 16.0.4, SVG Export Plug-In . SVG Version: 6.00 Build 0)  -->
<!DOCTYPE svg PUBLIC "-//W3C//DTD SVG 1.1//EN" "http://www.w3.org/Graphics/SVG/1.1/DTD/svg11.dtd">
<svg version="1.1" id="Layer_1" xmlns="http://www.w3.org/2000/svg" xmlns:xlink="http://www.w3.org/1999/xlink" x="0px" y="0px"
	 width="554.492px" height="258.905px" viewBox="0 0 554.492 258.905" enable-background="new 0 0 554.492 258.905"
	 xml:space="preserve">
<g>
	<path fill-rule="evenodd" clip-rule="evenodd" fill="#FFFFFF" d="M565.677,273.47c-7.784-8.402-15.857-16.533-24.153-24.422
		c-4.56-4.336-8.984-8.639-11.739-14.381c-3.934-6.666-5.551-14.021-5.538-21.611c0.014-8.326,2.47-16.115,6.942-23.203
		c0.495-0.785,1.082-1.535,1.08-2.533c-1.238-2.465-1.139-3.127,0.785-5.246c0.625-0.689,1.355-1.266,2.055-1.875
		c2.637-2.299,5.51-4.322,7.924-6.875c0.849-0.896,1.712-1.875,1.486-3.184c-0.314-1.812,0.055-3.545,0.279-5.299
		c-0.734-1.695-0.375-3.916-2.39-4.998c-0.774-0.229-1.556-0.148-2.35-0.084c-6.149,0.488-12.296,1.037-18.45,1.516
		c-7.653,0.594-15.308,1.213-22.953,1.904c-8.576,0.773-17.146,1.609-25.728,2.34c-8.792,0.75-17.599,1.336-26.407,1.885
		c-12.823,0.801-25.65,1.541-38.493,1.557c-12.995,0.014-25.991,0.266-38.995-0.277c-8.312-0.346-16.643-0.564-24.946-1.072
		c-12.531-0.766-25.042-1.875-37.525-3.268c-15.991-1.783-31.907-4.027-47.752-6.822c-16.967-2.996-33.748-7.014-50.897-9.01
		c-14.912-1.738-29.843-3.166-44.86-3.168c-11.631-0.002-23.261-0.271-34.898,0.297c-8.602,0.422-17.203,0.848-25.784,1.51
		c-12.665,0.979-25.303,2.264-37.93,3.68c-20.761,2.328-41.481,4.988-62.233,7.393c-0.797,0.094-1.565,0.238-2.163,0.836
		C0.042,197.5,0.054,235.939,0,274.38c-0.002,1.617,0.365,1.98,1.981,1.98c187.895-0.045,375.789-0.041,563.684-0.041
		C565.669,275.371,565.673,274.419,565.677,273.47z"/>
	<path fill-rule="evenodd" clip-rule="evenodd" fill="#1CB0C9" d="M542.71,160.244c-8.504,0.74-17.009,1.477-25.513,2.221
		c-11.076,0.967-22.148,1.971-33.229,2.9c-9.865,0.83-19.736,1.605-29.606,2.363c-23.065,1.775-46.17,2.367-69.298,2.16
		c-18.522-0.166-37.01-1.037-55.476-2.514c-19.959-1.596-39.82-3.98-59.589-7.117c-13.384-2.125-26.655-4.854-39.954-7.443
		c-12.044-2.346-24.209-3.865-36.424-5.047c-20.339-1.965-40.721-2.109-61.11-1.531c-14.125,0.402-28.219,1.484-42.298,2.77
		c-12.856,1.172-25.684,2.598-38.505,4.064c-11.181,1.279-22.328,2.854-33.514,4.094c-6.046,0.67-12.046,1.82-18.153,1.895
		c0-19.975,0-39.949,0-59.924c2.221-1.418,4.611-2.582,6.812-4.405c-1.898-0.978-3.967-1.062-5.766-2.223
		c2.349-1.61,4.887-2.772,7.053-4.834c-2.211-0.943-4.585-0.31-6.722-1.571c2.683-1.97,5.582-3.506,7.99-6.201
		c-1.141-0.076-2.011-0.133-3.548-0.235c4.292-1.345,6.98-3.967,9.917-6.59c-1.798-0.543-3.54,0.576-5.222-0.438
		c2.685-2.392,5.077-4.916,7.417-7.841c-1.846-0.201-3.469-0.378-5.188-1.37c2.853-1.827,5.834-3.193,8.254-5.358
		c-0.368-0.982-1.467-0.59-1.964-1.208c-0.297-0.959,0.521-1.265,1.059-1.621c5.034-3.333,8.343-8.013,10.656-13.487
		c0.141-0.332,0.27-0.668,0.436-0.986c0.352-0.678,0.528-1.629,1.512-1.598c0.884,0.027,1.32,0.801,1.699,1.497
		c0.824,1.513,1.582,3.063,2.502,4.523c2.034,3.224,3.977,6.517,7.701,8.166c1.104,0.488,0.833,1.161-0.006,1.746
		c-0.647,0.452-1.534,0.309-2.192,0.869c1.14,1.016,2.515,1.431,3.856,1.926c0.505,0.186,1.241,0.304,1.136,1.057
		c-0.091,0.64-0.724,0.839-1.283,1.001c-0.769,0.224-1.568,0.125-2.755,0.25c2.028,1.505,3.856,2.711,5.986,3.455
		c0.718,0.25,1.814,0.28,1.904,1.151c0.105,1.028-1.032,1.21-1.771,1.594c-0.313,0.162-0.698,0.192-1.036,0.65
		c0.68,0.874,1.725,1.38,2.548,2.127c1.169,1.062,1.086,1.697-0.329,2.41c-0.896,0.452-1.866,0.722-2.954,0.908
		c2.05,0.595,3.919,1.442,5.88,2.034c0.552,0.167,1.166,0.47,1.178,1.113c0.011,0.634-0.606,0.919-1.105,1.211
		c-1.003,0.587-2.177,0.696-3.615,1.277c1.678,1.725,3.131,3.412,5.069,4.62c0.488,0.304,1.01,0.55,1.504,0.84
		c0.478,0.28,1.188,0.465,1.129,1.144c-0.063,0.748-0.796,0.941-1.397,1.169c-0.924,0.35-1.951,0.373-3.032,0.877
		c1.617,1.751,3.914,2.385,5.299,4.141c1.096,0.681,2.367,1.01,3.441,1.738c0.42,0.286,0.999,0.556,0.871,1.101
		c-0.179,0.772-0.968,0.842-1.584,0.774c-2.349-0.261-4.723-0.311-7.245-0.8c1.503,1.34,3.081,2.288,4.552,3.376
		c0.938,0.694,1.867,0.608,2.804,0.02c1.513-0.952,3.021-1.917,4.809-3.236c-2.84-0.761-5.341-1.666-7.66-2.984
		c-0.586-1.394,0.61-1.733,1.394-2.228c2.722-1.723,5.566-3.258,8.231-5.537c-2.384-0.356-4.603-0.564-6.788-0.963
		c-0.635-0.115-1.281-0.176-1.896-0.38c-0.537-0.18-1.225-0.298-1.329-0.94c-0.109-0.658,0.526-0.96,0.999-1.257
		c2.797-1.75,5.584-3.511,8.129-5.622c0.758-0.628,1.504-1.257,2.221-2.089c-1.212-0.246-2.312,0.061-3.328-0.328
		c-0.844-0.321-0.975-0.794-0.195-1.364c0.408-0.299,0.885-0.478,1.361-0.628c2.923-0.916,5.438-2.547,7.795-4.451
		c1.632-1.14,2.938-2.688,4.706-3.761c-1.874,0.112-3.702,0.099-5.529,0.052c-0.706-0.019-1.579,0.019-1.889-0.711
		c-0.344-0.81,0.455-1.232,0.988-1.686c0.215-0.184,0.415-0.388,0.628-0.579c0.421-0.34,0.956-0.405,1.438-0.596
		c3.123-2.847,5.828-6.077,8.93-9.475c-3.173-0.012-5.852-0.579-8.639-2.032c5.091-2.035,9.341-4.939,13.492-8.412
		c-1.254-0.778-2.692-0.559-3.807-1.586c4.801-2.537,8.739-6.021,12.049-10.227c3.545-4.501,6.079-9.55,8.121-14.871
		c0.172-0.448,0.193-1.124,0.725-1.225c0.725-0.139,0.891,0.63,1.141,1.091c2.25,4.167,4.347,8.424,7.077,12.311
		c0.948,1.348,1.948,2.668,3.021,3.919c2.033,2.377,4.377,4.328,8.154,4.92c-2.652,1.489-5.074,1.683-7.986,1.939
		c3.742,2.535,6.928,4.885,11.559,5.139c-3.02,1.638-5.849,1.211-9.174,1.343c4.397,3.944,8.812,6.825,14.554,7.762
		c-2.135,1.532-4.489,2.042-7.149,2.724c2.602,2.056,4.799,4.159,7.764,5.687c-2.789,1.74-5.672,2.365-9.178,2.759
		c4.565,2.182,8.867,3.745,13.379,4.946c-1.679,1.72-4.111,2.562-9.4,3.261c4.326,4.425,8.383,8.823,14.576,10.956
		c-3.353,0.825-6.449,1.586-10.106,2.485c3.886,2.537,7.325,4.833,10.816,7.052c3.998,2.542,4.016,2.512,7.314-1.433
		c-1.562-0.5-3.134,0.123-4.876-0.277c2.385-2.764,5.146-4.927,7.297-7.987c-1.894-0.191-3.487-0.478-5.254-1.426
		c3.182-1.548,6.044-3.188,8.486-5.409c-0.474-0.854-1.465-0.431-2.077-1.291c7.011-3.833,10.849-10.225,13.689-17.696
		c3.899,5.591,5.529,12.699,12.702,15.188c-1.398,0.738-2.987,1.066-5.094,1.043c2.385,1.834,4.478,3.116,7.293,3.523
		c-1.731,1.154-3.467,0.698-5.483,0.98c2.685,2.583,5.576,4.191,9.109,5.058c-1.217,1.102-2.702,1.258-4.194,1.771
		c1.348,1.537,3.023,2.579,4.795,3.821c-1.703,1.042-3.431,1.373-5.598,1.817c2.833,1.618,5.651,2.304,8.544,3.326
		c-1.822,1.463-3.914,1.593-6.282,2.165c2.857,2.845,5.437,5.53,9.494,7.091c-2.219,0.597-4.061,1.091-6.201,1.667
		c1.192,1.129,2.315,1.842,3.51,2.457c2.652,0.633,4.676,2.451,6.991,3.717c0.425,0.231,0.94,0.582,0.837,1.142
		c-0.129,0.696-0.816,0.736-1.377,0.798c-1.668,0.188-3.277-0.322-4.918-0.47c-0.785-0.07-1.553-0.286-2.777-0.307
		c3.854,2.582,7.061,5.488,11.463,6.802c-1.575-0.879-1.377-1.615-0.181-2.371c1.196-0.756,2.581-1.214,3.689-2.194
		c-2.601-1.837-2.601-1.837,0.76-4.396c-0.026-0.133-0.132-0.185-0.288-0.242c-0.762-0.284-1.939-0.095-2.055-1.191
		c-0.102-0.955,0.863-1.402,1.535-1.928c0.762-0.597,1.75-0.97,1.52-2.32c-0.099-0.582,0.703-0.833,1.204-1.093
		c1.028-0.533,1.944-1.217,2.837-2.04c-0.316-0.645-1.475-0.28-1.512-1.174c-0.029-0.72,0.565-1.125,0.996-1.591
		c0.586-0.633,1.109-1.319,1.688-1.958c0.1-0.107,0.172-0.23,0.235-0.385c0.022-0.604-0.567-0.529-0.892-0.728
		c-0.936-0.579-0.938-1.176-0.119-1.846c0.502-0.411,1.075-0.718,1.608-1.082c0.83-0.566,2.044-0.807,1.673-2.339
		c-0.134-0.559,0.583-0.948,1.057-1.251c2.906-1.856,4.714-4.569,6.06-7.654c0.201-0.46,0.437-0.906,0.722-1.322
		c0.738-1.071,1.511-0.996,2.208,0.001c0.823,1.178,1.395,2.507,2.154,3.729c0.886,1.422,1.882,2.779,3.339,3.594
		c1.407,0.786,1.773,1.555,0.455,2.627c0.682,0.823,2.137,0.577,2.092,1.804c-0.03,0.856-0.965,0.89-1.664,1.087
		c0.924,0.602,1.859,1.1,2.848,1.505c0.398,0.164,0.836,0.283,1.137,0.599c0.937,0.99-0.563,1.251-0.601,1.939
		c-0.041,0.783,0.886,1.118,0.94,1.869c0.04,0.549-0.155,0.713-1.628,1.476c0.604,0.183,1.204,0.389,1.797,0.609
		c0.657,0.244,1.516,0.332,1.658,1.176c0.153,0.906-0.653,1.19-1.296,1.484c-0.802,0.367-0.671,0.792-0.162,1.296
		c0.512,0.507,1.085,0.938,1.669,1.357c2.395,1.712,2.395,1.714-0.021,3.326c1.29,1.1,2.716,1.899,4.094,2.768
		c0.533,0.335,1.347,0.677,1.132,1.389c-0.242,0.808-1.145,0.718-1.862,0.685c-0.788-0.037-1.556-0.263-2.785-0.288
		c1.596,1.005,2.812,1.912,4.057,2.783c0.643,0.449,1.432,0.891,1.221,1.838c-0.185,0.826-1.029,0.896-1.696,1.136
		c-0.459,0.165-1.017,0.091-1.448,0.64c1.627,1.385,3.339,2.648,5.132,3.8c0.89,0.569,1.918,0.551,2.929,0.431
		c10.621-1.266,21.236-2.569,31.841-3.967c5.972-0.786,12.004-1.051,17.998-1.633c5.231-0.509,10.463-0.262,15.695-0.634
		c5.419-0.386,10.895,0.189,16.338,0.411c8.101,0.328,16.157,1.264,24.195,2.379c10.754,1.494,21.381,3.602,31.934,6.127
		c15.3,3.66,30.317,8.387,45.589,12.16c2.602,0.643,4.618,0.176,6.503-1.461c0.056-0.199,0.016-0.33-0.12-0.408
		c-0.841-0.477-2.24-0.473-2.305-1.65c-0.061-1.121,1.231-1.443,2.029-2.01c0.402-0.287,0.899-0.449,1.18-0.881
		c0.004-0.168-0.084-0.25-0.25-0.303c-0.926-0.297-2.273-0.152-2.523-1.305c-0.286-1.309,1.211-1.564,1.908-2.305
		c0.51-0.541,2.24-0.607,0.759-2.088c-0.546-0.548,0.532-1.006,1.051-1.275c1.654-0.859,3.377-1.601,4.631-3.044
		c-2.476-0.673-2.585-1.147-0.758-3.133c0.812-0.882,1.826-1.594,2.384-2.626c-0.239-0.577-0.732-0.594-1.091-0.806
		c-1.049-0.622-0.977-1.313-0.135-2.037c0.656-0.563,1.429-0.963,2.143-1.444c0.781-0.527,1.542-1.005,1.502-2.159
		c-0.03-0.793,0.648-1.25,1.236-1.659c3.357-2.331,5.539-5.573,7.204-9.222c0.355-0.777,0.608-1.773,1.586-1.877
		c1.06-0.114,1.311,0.961,1.75,1.653c1.234,1.938,2.295,3.99,3.805,5.743c0.657,0.763,1.382,1.453,2.27,1.963
		c2.113,1.216,2.109,1.227,0.196,2.731c0.089,0.42,0.494,0.45,0.778,0.632c0.678,0.435,1.942,0.344,1.873,1.439
		c-0.055,0.853-1.142,0.924-1.984,1.218c1.191,1.084,2.537,1.562,3.823,2.143c0.946,0.428,1.22,1.022,0.308,1.752
		c-0.546,0.438-1.01,0.677-0.254,1.452c1.633,1.673,1.578,1.728-0.322,3.278c0.848,0.588,1.881,0.701,2.774,1.152
		c1.261,0.637,1.093,1.215,0.093,2.033c-0.562,0.461-2.213,0.179-1.591,1.406c0.567,1.119,1.648,2.324,3.542,1.191
		c-0.811-0.141-1.711,0.177-1.99-0.545c-0.309-0.797,0.42-1.293,0.93-1.781c0.521-0.498,0.99-1.037,1.466-1.577
		c0.632-0.718,1.101-1.318-0.106-2.001c-1.06-0.6-0.561-1.23,0.136-1.831c4.253-3.665,8.153-7.622,10.504-12.846
		c0.293-0.652,0.59-1.443,1.411-1.479c0.842-0.036,1.125,0.786,1.479,1.395c1.541,2.669,2.916,5.442,5.572,7.286
		c1.057,0.734,0.793,1.55-0.458,2.027c2.837,1.628,2.87,1.717,1.341,3.153c0.518,0.523,1.189,0.783,1.824,1.112
		c1.001,0.521,2.69,0.714,1.11,2.448c-0.401,0.439,0.1,0.783,0.396,1.064c1.279,1.223,0.698,1.967-0.667,2.555
		c0.873-0.168,1.522-0.602,2.024-1.276c0.17-0.228,0.576-0.526,0.475-0.67c-1.921-2.691,1.082-2.359,2.015-3.103
		c1.396-1.115,2.956-2.029,4.353-3.488c-0.699-0.168-1.271,0.098-1.836,0.115c-0.649,0.02-1.385,0.115-1.754-0.528
		c-0.394-0.686,0.16-1.232,0.576-1.702c1.24-1.397,2.619-2.661,3.923-3.998c0.392-0.402,0.865-0.747,1.114-1.382
		c-0.781-0.632-1.803-0.5-2.596-0.956c-1.265-0.728-1.334-1.45-0.051-2.147c1.579-0.858,3.157-1.705,4.627-2.744
		c0.676-0.479,1.216-0.836,0.657-1.883c-0.615-1.158,0.595-1.616,1.302-2.105c3.688-2.557,6.457-5.875,8.454-9.874
		c0.486-0.974,0.78-2.005,1.117-3.028c1.788-2.559,2.32-2.532,3.828,0.221c0.474,0.865,1.011,1.694,1.48,2.559
		c0.361,0.821,0.89,1.544,1.383,2.286c0.568,1.27,1.535,2.268,2.32,3.387c0.684,0.85,1.552,1.47,2.453,2.067
		c0.729,0.48,2.036,0.624,1.814,1.813c-0.198,1.074-1.396,1.056-2.481,1.359c1.007,0.722,1.986,1.213,2.992,1.674
		c0.631,0.289,1.537,0.495,1.486,1.333c-0.05,0.845-0.962,0.928-1.635,1.134c-0.338,0.103-0.715,0.039-1.131,0.297
		c1.497,1.291,3.133,2.206,5.004,2.734c0.658,0.185,1.626,0.191,1.677,1.065c0.052,0.915-0.86,1.207-1.57,1.552
		c-0.368,0.179-0.858,0.126-1.119,0.582c0.512,0.708,1.307,1.07,1.968,1.592c1.722,1.357,1.638,2.054-0.396,2.984
		c-0.388,0.178-0.812,0.274-1.603,0.579c1.679,0.731,3.15,1.108,4.568,1.62c0.595,0.215,1.33,0.375,1.331,1.191
		c0.001,0.768-0.676,1.023-1.243,1.328c-0.869,0.463-1.937,0.455-2.826,1.176c1.461,1.845,3.137,3.348,5.152,4.48
		c0.609,0.341,1.452,0.654,1.366,1.488c-0.097,0.928-1.025,1.078-1.771,1.33c-0.538,0.182-1.133,0.201-1.744,0.627
		c0.41,0.713,1.212,0.945,1.77,1.438c0.664,0.59,1.379,1.143,0.631,2.141c-1.77,1.348-2.716,2.984-2.209,5.328
		c0.202,0.932,0.223,1.992-0.557,2.812c-0.845,0.488-1.669,0.131-2.502-0.057c-4.059-0.914-8.129-1.777-12.326-1.578
		c-0.74,0.037-1.801-0.215-2.011,0.77c-0.192,0.902,0.756,1.312,1.436,1.656c4.73,2.402,8.126,6.564,12.488,9.449
		c0.359,0.238,0.599,0.613,0.753,1.031c0.014,3.504-0.181,7.016,0.271,10.51C543.153,159.464,543.01,159.898,542.71,160.244z"/>
	<path fill-rule="evenodd" clip-rule="evenodd" fill="#FFFFFF" d="M560.567,148.558c-0.724,0.041-1.453,0.107-2.184,0.24
		c-3.358-0.057-6.453-1.305-9.758-1.602c-0.957,0.002-1.925-0.068-2.872,0.021c-4.405,0.42-6.62,3.441-5.034,6.982
		c0.541,1.203-0.205,1.605-1.112,2.168c-4.084,2.529-7.441,5.664-10.104,9.34c-0.325,0.453-1.613,1.168,0.132,1.574
		c1.486-0.053,2.972-0.104,4.456-0.154c9.022,0.094,18.042,0.014,27.036,0.885c0.144,0.014,0.289,0.02,0.434,0.033
		C561.295,161.548,560.966,155.052,560.567,148.558z"/>
	<path fill-rule="evenodd" clip-rule="evenodd" fill="#FFFFFF" d="M564.956,185.818c-5.74-0.846-11.551-1.271-17.466-1.088
		c-1.03,0.033-1.975-0.297-2.956-0.471c-1.121-0.154-2.237-0.123-3.346,0.113c-0.773,0.473-2.03,0.096-2.354,1.352
		c1.264,1.398,2.909,0.133,4.46,0.518c-6.133,6.242-10.009,13.594-12.451,21.723c-1.542,5.129-3.119,10.279-2.914,15.742
		c-0.018,1.844,0.118,3.695-0.074,5.539c-0.191,2.234,0.797,4.158,1.627,6.121c0.598,1.125,1.123,2.295,1.807,3.367
		c2.679,4.201,6.337,7.488,9.935,10.887c6.304,5.955,12.354,12.182,18.442,18.359c2.065,2.094,4.03,4.285,6.008,6.467
		C565.81,244.89,565.998,215.343,564.956,185.818z"/>
	<path fill-rule="evenodd" clip-rule="evenodd" fill="#0E6579" d="M330.705,99.983c7.052-1.796,14.087-3.662,21.163-5.367
		c4.986-1.203,10.028-2.187,15.046-3.269c2.655-1.873,5.83-1.94,8.85-2.379c10.797-1.569,21.612-2.859,32.544-3.272
		c7.616-0.288,15.198-0.475,22.789,0.22c3.022-0.134,6.007,0.424,9.017,0.52c5.332,0.436,10.675,0.78,15.957,1.657
		c8.776,1.434,17.632,2.267,26.451,3.399c1.258,0.162,2.41-0.027,3.471-0.793c1.388-1.003,2.826-1.932,4.069-2.984
		c0.023-0.28-0.048-0.391-0.2-0.457c-0.95-0.416-2.456-0.28-2.626-1.529c-0.185-1.339,1.33-1.695,2.2-2.368
		c0.849-0.656,1.78-1.206,2.764-1.862c-0.874,0.031-1.627,0.229-2.396,0.159c-0.645-0.059-1.459-0.021-1.684-0.7
		c-0.254-0.755,0.547-1.07,1.065-1.413c1.192-0.784,2.48-1.431,3.532-2.384c-0.039-0.527-0.465-0.553-0.77-0.684
		c-1.203-0.521-1.137-1.156-0.162-1.837c0.882-0.615,1.83-1.142,2.568-1.942c0.325-0.354,0.734-0.609,0.159-1.21
		c-1.683-1.76-1.587-2.01,0.8-2.861c0.326-0.116,0.656-0.208,1.002-0.241c-1.239-0.525-2.073-1.189-0.828-2.522
		c0.386-0.415,0.59-0.786,0.052-1.258c-1.156-1.017-0.546-1.56,0.564-1.913c0.899-0.285,1.717-0.72,2.537-1.281
		c-0.53-0.416-1.626-0.464-1.487-1.244c0.209-1.179,1.589-1.01,2.533-1.685c-1.082-0.582-1.279-1.389-0.207-2.095
		c2.325-1.535,3.525-3.909,4.82-6.227c0.416-0.745,0.779-1.661,1.792-1.662c1.068-0.001,1.301,0.992,1.654,1.753
		c1.321,2.842,3.048,5.36,5.625,7.221c0.232,0.167,0.594,0.341,0.619,0.575c0.249,2.218,2.124,2.864,3.647,3.858
		c0.961,0.628,0.792,1.319-0.055,1.834c-0.957,0.581-0.687,1.063-0.054,1.644c0.423,0.387,0.823,0.8,1.205,1.229
		c0.947,1.067,1.511,2.082-0.524,2.63c0.662,0.975,1.619,1.337,2.435,1.887c0.849,0.571,2.291,0.634,1.712,2.383
		c-0.164,0.496,0.895,0.797,1.382,1.2c0.599,0.494,1.515,0.875,1.375,1.766c-0.148,0.958-1.215,0.818-1.914,1.091
		c-0.148,0.058-0.261,0.114-0.323,0.281c0.709,0.898,2.43,1.084,2.256,2.572c-0.11,0.959-1.299,0.956-2.085,1.295
		c0.443,0.53,1.282,0.742,1.283,1.608c0.608,0.842-0.041,1.499-0.354,2.177c-2.345,5.08-5.781,9.214-10.634,12.004
		c0.084,0.545,0.418,0.647,0.766,0.735c0.271,0.068,0.54,0.141,1.178,0.306c-2.444,2.35-5.124,3.839-8.05,5.174
		c1.418,1.213,3.163,0.876,4.781,1.672c-2.464,2.252-4.867,4.449-7.27,6.646c0.163,0.242,0.324,0.483,0.487,0.726
		c1.582,0.394,3.24-0.713,4.933,0c-2.506,2.484-5.112,4.648-8.935,6.026c1.185,0.165,1.812,0.251,2.483,0.345
		c-2.145,3.149-3.614,3.818-5.777,2.64c0.872-0.483,1.953-0.392,2.814-1.216c-0.86-0.731-1.695-1.44-2.646-2.248
		c0.801-0.386,1.474-0.709,2.46-1.184c-2.182-0.691-3.929-1.517-5.526-3.172c1.041-0.102,1.787-0.174,2.819-0.274
		c-1.081-1.073-2.523-1.122-3.428-2.294c0.669-0.271,1.318-0.532,2.245-0.906c-4.159-1.966-5.349-6.031-7.629-9.481
		c-0.836,1.691-1.519,3.253-2.359,4.726c-1.18,2.07-2.648,3.913-4.686,5.244c-0.623,0.408-1.793,0.705-0.701,1.848
		c0.027,0.031-0.551,0.783-0.946,1.049c-1.181,0.795-2.41,1.516-3.601,2.255c0.46,1.153,2.472,0.091,2.342,1.483
		c-0.074,0.813-1.186,1.545-1.863,2.285c-0.708,0.776-1.455,1.52-2.233,2.329c1.093,0.22,2.131-0.544,3.162,0.013
		c-2.533,3.004-3.59,2.789-6.684-1.375c1.075-0.855,2.677-0.533,3.713-1.691c-1.601-0.896-3.554-0.971-5.045-2.182
		c0.742-0.973,2.077-0.641,2.918-1.532c-0.71-1.107-2.292-1.367-2.843-2.713c0.834-0.367,1.643-0.722,2.736-1.203
		c-2.505-0.817-4.534-1.752-6.256-3.469c1.1-0.654,2.45,0.116,3.318-0.976c-1.557-0.371-2.938-1.04-4.246-2.025
		c0.933-0.749,2.098-0.547,2.84-1.313c-4.906-1.783-6.17-6.616-8.836-10.456c-0.989,0.739-1.037,1.961-1.53,2.914
		c-1.813,3.487-4.004,6.634-7.4,8.787c-0.392,0.247-1.496,0.389-0.265,1.219c0.787,0.53-0.127,0.995-0.51,1.26
		c-1.455,1.009-2.964,1.942-4.479,2.922c0.784,1.085,2.05,0.578,3.103,1.167c-1.212,2.14-3.324,3.465-4.809,5.43
		c1.087,0.6,2.201-0.009,3.318,0.426c-1.874,2.297-4.312,3.674-7.385,4.838c1.045,0.105,1.647,0.166,2.405,0.244
		c-1.187,2.002-3.325,2.637-4.896,4.131c1.357,0.883,2.954,0.537,4.407,1.213c-1.293,1.596-3.29,2.102-4.71,3.396
		c1.108,1.01,2.659,0.777,3.845,1.621c-2.598,2.422-5.166,3.549-8.894,2.488c-13.987-3.975-28.049-7.695-42.122-11.361
		c-14.224-3.703-28.673-6.289-43.271-7.947c-7.832-0.889-15.715-1.207-23.6-1.522c-5.9-0.237-11.768-0.005-17.633,0.194
		c-10.236,0.348-20.435,1.301-30.587,2.768c-7.649,1.104-15.35,1.875-23.025,2.803c-0.71,0.084-1.416,0.211-2.121,0.331
		c-1.777,0.301-3.364,0.04-4.827-1.169c-1.695-1.402-3.529-2.639-5.468-4.068c1.528-0.999,3.234-0.695,4.887-1.604
		c-2.389-1.67-4.573-3.199-6.976-4.879c2.141-0.781,3.99,0.243,6.147,0.075c-2.261-1.688-4.684-2.72-6.662-4.583
		c0.949-0.802,2.117-0.624,3.145-1.215c-1.974-1.14-3.793-2.372-5.087-4.191c0.84-0.941,2.344-0.395,3.058-1.643
		c-1.566-0.599-3.074-1.175-4.827-1.846c1.153-0.438,2.063-0.781,3.102-1.174c-0.565-1.055-1.882-1.24-2.213-2.33
		c0.383-0.799,1.468-0.515,1.955-1.269c-1.93-0.662-3.816-1.391-5.214-3.023c0.881-0.499,1.976,0.204,2.737-0.803
		c-1.21-0.458-2.48-0.713-3.332-1.693c0.441-0.832,1.543-0.455,2.009-1.264c-4.073-1.701-5.331-5.707-7.536-9.34
		c-0.98,1.893-1.803,3.584-2.718,5.222c-1.139,2.041-2.791,3.619-4.671,4.987c-0.426,0.31-2.203,0.446-0.37,1.51
		c0.458,0.264-0.349,0.63-0.616,0.816c-1.336,0.939-2.72,1.809-4.096,2.708c0.766,0.832,1.786,0.573,2.998,0.88
		c-1.488,1.665-2.867,3.208-4.268,4.774c0.855,0.579,1.855-0.098,2.823,0.493c-1.594,1.6-3.258,2.974-5.448,3.722
		c0.439,0.416,1.82,0.38,0.586,1.333c-1.226,0.949-2.455,1.895-3.944,3.044c1.521,0.306,2.735,0.551,4.376,0.881
		c-1.661,1.112-3.056,2.044-4.492,3.005c0.976,0.818,2.177,0.838,3.364,1.327c-1.618,1.887-3.981,2.507-6.238,3.973
		c1.134,0.081,1.879,0.135,2.882,0.207c-1.41,1.628-2.571,2.131-4.477,0.913c-3.506-2.238-6.858-4.67-10.68-7.352
		c3.879-0.598,7.154,1.002,10.845,0.622c-2.632-1.897-5.52-2.912-7.708-4.967c3.545-1.442,6.611-3.657,9.854-5.97
		c-1.591-1.089-3.404-0.886-5.124-1.747c2.839-0.997,4.919-2.872,6.827-4.959c0.312-0.341,0.936-0.595,0.675-1.203
		c-0.19-0.447-0.712-0.393-1.136-0.453c-1.207-0.173-2.363-0.485-3.482-1.399c2.121-1.198,4.591-1.304,6.658-2.846
		c-1.375-0.767-2.936-0.784-4.167-1.786c1.387-1.046,2.673-2.015,4.048-3.052c-1.08-0.898-2.471-0.753-3.508-1.848
		c2.94-0.815,5.506-2.137,7.85-4.387c-1.658-0.437-3.266,0.176-4.641-0.882c2.213-0.37,3.991-1.47,5.939-2.889
		c-1.247-0.54-2.574-0.203-3.646-1.173c5.52-2.77,7.597-8.248,10.668-13.593c2.398,6.658,5.917,12.062,11.99,15.768
		c-2.108,1.046-1.143,1.763,0.044,2.57c1.713,1.17,3.504,2.203,5.455,3.181c-0.644,0.892-1.551,1.032-2.325,1.069
		c-2.145,0.103-1.612,1.087-0.722,2.076c1.707,1.9,3.501,3.721,5.254,5.571c-1.453,0.669-3.041-0.687-4.788-0.042
		c2.457,2.347,4.964,4.397,8.097,5.56c-0.15,1.07-1.15,0.344-1.55,0.899c0.128,0.82,0.853,1.248,1.446,1.678
		c1.004,0.729,2.045,1.759,3.555,0.454c-0.854-0.332-1.61-0.626-2.449-0.954c0.425-1.046,1.478-1.365,2.068-2.166
		c-0.16-0.868-1.338-0.44-1.584-1.364c1.394-0.935,3.338-1.227,4.54-2.62c-0.603-0.989-2.243,0.433-2.305-1.274
		c0.344-0.489,0.827-0.798,1.373-1.003c0.54-0.202,0.438-0.356,0.03-0.614c-0.91-0.577-0.665-1.255,0.059-1.681
		c2.414-1.425,3.741-3.677,4.903-6.094c0.401-0.834,0.842-1.848,1.909-1.844c1.134,0.006,1.346,1.153,1.723,1.971
		c1.226,2.653,2.865,4.966,5.244,6.717c0.678,0.498,1.263,0.97,1.338,2.034c0.092,1.294,1.496,1.571,2.44,2.137
		c1.78,1.063,1.854,1.165,0.384,2.473c-0.568,0.506-0.463,0.759-0.052,1.178c0.505,0.511,1.027,1.005,1.504,1.543
		c0.927,1.042,1.323,2-0.657,2.531c1.746,0.5,1.989,0.392,3.599-1.438c-0.04-0.364-0.345-0.411-0.606-0.503
		c-0.866-0.304-2.082-0.432-2.059-1.558c0.018-0.986,1.208-1.067,1.981-1.377c0.667-0.267,1.355-0.479,2.092-0.637
		c-0.501-0.3-1.082-0.369-1.524-0.748c-0.539-0.461-0.584-0.938-0.181-1.499c0.386-0.533,0.981-0.839,1.437-1.365
		c-0.213-0.729-1.477-0.833-1.234-1.787c0.207-0.807,1.099-0.825,1.72-1.137c0.761-0.381,1.578-0.669,2.182-1.327
		c-1.774-1.602-1.774-1.602,1.104-3.278c-1.575-1.546-1.582-1.556,0.268-2.814c2.342-1.593,3.751-3.918,5.033-6.347
		c0.301-0.572,0.551-1.174,0.914-1.709c0.955-1.411,1.684-1.408,2.477,0.126c1.121,2.17,2.131,4.392,3.652,6.335
		c0.67,0.856,1.365,1.666,2.273,2.27c0.84,1.008,2.368,1.409,2.165,3.348c-0.075,0.71,1.643,1.397,2.627,1.972
		c2.642,1.539,2.647,1.754-0.105,3.417c0.8,1.114,1.883,1.941,2.763,2.947c0.504,0.579,1.294,1.164,0.902,2.008
		c-0.344,0.74-1.229,0.557-2.208,0.527c0.999,0.967,1.981,1.592,2.987,2.191c0.799,0.476,1.646,0.892,1.529,2.081
		c-0.053,0.555,0.428,0.867,0.83,1.172c0.455,0.344,0.931,0.661,1.402,0.983c0.701,0.477,1.676,0.891,1.566,1.86
		c-0.123,1.111-1.358,0.779-2.059,1.165c-0.234,0.071-0.481,0.116-0.698,0.205c0.171,0.937,1.113,1,1.675,1.469
		c1.533,1.28,1.524,1.772-0.207,2.773c-0.241,0.14-0.545,0.186-0.734,0.56c1.605,1.62,3.387,2.219,5.742,1.582
		c6.494-1.759,12.984-3.526,19.476-5.292C328.322,100.131,329.444,99.428,330.705,99.983z"/>
	<path fill-rule="evenodd" clip-rule="evenodd" fill="#0D5B6E" d="M58.665,90.952c-2.555-0.873-4.494-2.718-6.905-4.236
		c1.804-1.308,3.989-0.91,5.86-2c-3.761-1.409-6.251-4.124-8.889-6.945c2.035-0.858,4.183-0.74,5.87-2.223
		c-2.905-1.05-5.815-1.769-8.771-3.446c2.266-0.159,4.01-0.699,5.813-1.627c-1.639-1.274-3.188-2.478-4.873-3.788
		c1.494-0.69,3.07-0.711,4.311-1.86c-3.494-0.82-6.347-2.568-9.127-4.995c1.858-0.687,3.708,0.214,5.327-1.018
		c-2.545-0.514-4.631-1.635-6.771-3.357c1.65-0.472,3.216-0.317,4.524-1.188c-6.784-2.782-8.608-9.563-12.333-15.126
		c-0.914,2.015-1.662,3.765-2.49,5.476c-2.503,5.174-6.336,9.15-11.135,12.242c-0.321-0.28-0.611-0.611-0.969-0.832
		c-2.278-1.408-2.264-1.372,0.009-3.006c1.507-1.084,2.946-2.262,4.618-3.553c-2.086-1.11-4.503-1.107-6.386-2.735
		c5.191-0.995,9.339-3.706,13.452-7.282c-2.933-0.57-5.756,0.32-8.371-1.403c4.088-0.21,7.035-2.498,10.432-4.565
		c-2.432-1.115-5.129-0.615-7.299-2.253c5.084-0.605,7.691-4.345,10.331-7.927c2.683-3.643,4.678-7.716,6.774-11.715
		c0.296-0.565,0.519-1.371,1.226-1.367c0.835,0.004,0.728,0.958,0.944,1.502c2.847,7.136,6.545,13.69,12.408,18.853
		c1.99,1.751,4.18,3.192,6.524,4.568c-0.97,0.977-2.172,0.912-3.691,1.309c3.938,3.51,8.001,6.257,13.055,8.168
		c-2.711,1.395-5.223,1.951-8.189,1.998c3.324,3.828,6.442,7.429,10.065,10.554c0.409,0.354,1.039,0.453,1.564,0.669
		c-0.324,0.256-0.648,0.511-0.973,0.767c-2.059,0.925-4.385,0.856-6.974-0.058c2.565,1.505,4.933,4.033,7.669,6.082
		c0.282,0.209,0.422,0.572,0.213,0.953c-2.639,2.655-5.979,4.055-9.758,5.313c1.854,0.549,3.454,0.093,5.404,0.352
		c-3.629,4.148-8.06,6.784-12.725,9.584c3.818,0.931,7.425,1.442,11.343,1.575c-1.234,1.916-3.049,2.799-4.646,3.893
		c-1.65,1.13-3.426,2.076-5.14,3.118c-0.592,0.359-1.361,0.584-1.31,1.51L58.665,90.952z"/>
	<path fill-rule="evenodd" clip-rule="evenodd" fill="#FFFFFF" d="M538.874,185.654c1.903,0.494,3.778-0.785,5.922-0.07
		c-10.327,10.539-14.986,23.408-16.256,37.717c-0.292,2.008-0.285,4.014-0.004,6.021c-0.156,2.088,0.597,4.035,0.945,6.045
		c-2.785-4.324-4.302-9.113-5.212-14.133c-2.26-12.479,0.871-23.723,7.763-34.115C534.13,185.775,536.333,184.923,538.874,185.654z"
		/>
	<path fill-rule="evenodd" clip-rule="evenodd" fill="#FFFFFF" d="M538.874,185.654c-2.312,0.34-4.484,1.334-6.842,1.465
		c-1.821-0.494-1.962-1.637-1.219-3.135c0.89-1.789,2.385-3.031,3.865-4.283c2.682-2.273,5.495-4.393,7.939-6.938
		c0.979-1.021,1.633-2.01,1.12-3.613c-0.433-1.357-0.331-2.859,0.748-4.059c0.951-0.367,1.868-0.449,2.883-0.086
		c2.632,0.943,5.299,1.787,7.953,2.668c-0.556,0.734-1.416,0.59-2.168,0.752c-2.796,0.605-3.881,2.18-3.201,4.959
		c0.335,1.377-0.215,2.219-1.202,2.945c-2.396,1.76-4.445,3.859-6.158,6.281c-0.532,0.752-1.222,1.422-1.406,2.385
		C540.416,185.216,539.645,185.435,538.874,185.654z"/>
	<path fill-rule="evenodd" clip-rule="evenodd" fill="#0E6276" d="M563.384,37.004c-0.086-0.119-0.172-0.236-0.258-0.356
		c-0.492-0.69-0.9-1.475-1.814-1.725c-1.539-2.11-2.17-4.702-3.557-7.164c-3.589,5.343-5.209,11.986-11.914,14.364
		c1.209,0.867,2.808,0.827,4.763,1.22c-1.161,0.665-1.889,1.082-2.617,1.499c-1.114,0.54-2.368,0.413-3.526,0.745
		c-0.492,0.143-0.971,0.376-0.953,0.99c0.016,0.484,0.405,0.716,0.799,0.914c0.797,0.401,1.722,0.396,2.638,0.677
		c-1.553,1.519-3.657,1.959-5.003,3.494c-0.525,0.19-1.051,0.38-1.641,0.595c1.049,1.085,2.584,0.936,3.674,1.863
		c-1.233,1.413-2.832,2.314-4.317,3.451c1.641,0.933,3.303,1.282,5.229,1.663c-2.549,1.591-5.258,2.161-7.98,3.168
		c1.766,1.461,3.82,1.593,5.879,2.043c-2.648,2.834-5.296,5.263-8.901,6.862c2.116,0.543,3.871,0.992,5.992,1.537
		c-3.881,2.687-7.45,5.023-11.671,7.284c3.912-0.382,7.293-0.713,11.289-1.102c-3.734,2.747-6.978,5.176-10.475,7.251
		c0.059,0.907,0.676,1.473,1.258,2.061c1.23,1.182,2.799,1.237,4.339,1.333c-0.915,0.48-1.849,0.982-2.105,2.149
		c1.097,1.661,2.831,2.503,4.648,3.426c-1.193,1.033-2.607,0.781-4.117,1.085c1.975,1.59,3.925,2.553,6.113,3.303
		c-1.345,1.024-2.823,0.651-4.429,0.928c2.486,2.304,5.028,3.862,8.346,4.427c-1.151,1.174-2.589,1.159-3.919,1.762
		c1.169,1.534,2.876,2.31,4.307,3.512c-1.354,1.108-2.984,1.148-4.604,1.798c2.321,1.636,4.934,1.907,7.38,3.063
		c-1.75,1.205-3.57,1.472-5.508,1.919c2.388,2.696,4.774,5.011,8.135,6.509c-1.698,1.028-3.559,0.754-5.008,1.759
		c0.752,0.954,1.794,1.341,2.598,2.022c0.455,0.387,1.562,0.404,1.055,1.494c1.554,0.715,3.194,0.66,4.843,0.551
		c0.54-0.324,1.081-0.648,1.621-0.973c0.23-1.699-1.134-2.697-1.792-3.994c-2.055-4.043-0.781-6.57,3.654-7.109
		c0.795-0.096,1.57-0.035,2.358,0.049c0.921,0.097,1.833,0.235,2.736,0.4C559.521,90.768,559.352,63.685,563.384,37.004z"/>
	<path fill-rule="evenodd" clip-rule="evenodd" fill="#1CB0C9" d="M545.867,137.677c-1.529,3.365-2.815,6.811-3.505,10.455
		c-2.778-1.258-4.971-3.312-7.204-5.311c-1.978-1.77-4.085-3.346-6.474-4.527c-0.9-0.445-1.947-0.883-1.652-2.156
		c0.289-1.258,1.373-1.207,2.41-1.24c5.343-0.168,10.494,0.984,15.637,2.201C545.468,137.121,545.851,137.15,545.867,137.677z"/>
	<path fill-rule="evenodd" clip-rule="evenodd" fill="#0C596C" d="M58.681,90.933c2.994,0.622,5.761,2,8.986,2.966
		c-2.418,1.536-4.834,3.076-7.258,4.605c-0.44,0.278-0.834,0.035-1.184-0.215c-2.243-1.596-4.479-3.203-6.527-5.251
		c3.275,0.316,6.552,0.632,10.229,0.988c-1.49-1.442-3.249-1.748-4.262-3.075C58.665,90.952,58.681,90.933,58.681,90.933z"/>
	<path fill-rule="evenodd" clip-rule="evenodd" fill="#1CB0C9" d="M545.867,137.677c-0.264-0.193-0.524-0.385-0.788-0.578
		c-0.055-1.127,0.029-2.283-0.195-3.379c-0.502-2.422,0.574-3.891,2.623-4.891c1.701-0.574,3.305-0.299,4.843,0.551
		C549.879,131.902,547.78,134.716,545.867,137.677z"/>
	<path fill-rule="evenodd" clip-rule="evenodd" fill="#A4E1EE" d="M530.276,88.338c1.736,0.318,3.474,0.638,5.621,1.033
		c-1.283,0.928-2.337,1.69-3.388,2.45C531.681,90.715,530.575,89.784,530.276,88.338z"/>
	<path fill-rule="evenodd" clip-rule="evenodd" fill="#FFFFFF" d="M564.211,168.847c-0.54,0.037-1.082,0.096-1.626,0.209
		c-2.5-0.047-4.805-1.125-7.263-1.383c-0.713,0.004-1.433-0.059-2.139,0.021c-3.28,0.361-4.929,2.965-3.747,6.02
		c0.402,1.037-0.153,1.385-0.827,1.869c-3.041,2.182-5.54,4.885-7.521,8.055c-0.243,0.391-1.201,1.008,0.099,1.357
		c1.106-0.045,2.211-0.088,3.316-0.133c6.715,0.08,13.43,0.012,20.125,0.764c0.106,0.012,0.215,0.018,0.322,0.027
		C564.751,180.052,564.508,174.449,564.211,168.847z"/>
	<path fill-rule="evenodd" clip-rule="evenodd" fill="#FFFFFF" d="M564.921,184.812c-1.672-0.1-3.344-0.188-5.015-0.242
		c-5.13-0.176-10.282-0.465-15.403,0.293c1.089,0.414,2.217,0.539,3.375,0.482c5.308-0.26,10.59,0.199,15.815,0.961
		c0.431,0.062,0.858,0.137,1.288,0.205C564.963,185.947,564.941,185.378,564.921,184.812z"/>
	<path fill-rule="evenodd" clip-rule="evenodd" fill="#FFFFFF" d="M528.536,229.322c-0.61-2.01-0.618-4.016,0.004-6.021
		C528.538,225.308,528.538,227.314,528.536,229.322z"/>
	<path fill-rule="evenodd" clip-rule="evenodd" fill="#0E6276" d="M560.892,117.048c-2.257-0.439-4.511-0.74-6.837-0.244
		c-2.145,0.457-3.474,1.972-3.494,4.16c-0.026,3.022,1.854,5.154,3.411,7.443c2.309,3.043,5.018,5.707,7.799,8.309
		c0.108,0.156,0.229,0.299,0.345,0.449C561.659,130.472,561.235,123.763,560.892,117.048z"/>
	<path fill-rule="evenodd" clip-rule="evenodd" fill="#1CB0C9" d="M569.151,144.925c-0.446-3.297-0.889-6.6-1.309-9.908
		c-4.127-2.326-7.982-4.791-12.602-6.857c-1.306-0.139-2.241,0.232-3.147,0.643c-4.152,2.07-7.474,4.479-10.34,7.07
		c-2.407,2.141-3.774,4.488-4.858,6.889c-0.279,0.617-0.614,1.268,0.232,1.859c-0.755,3.342-0.934,6.676,0.541,9.982
		c1.333,1.254,0.736,2.881,2.77,3.996c5.83,0.604,11.302,1.855,17.038,2.619c3.797,0.447,7.446,1.359,11.491,1.008
		c2.088-0.447,1.498-1.326,1.098-2.102C567.405,154.978,567.055,149.914,569.151,144.925z"/>
</g>
</svg>
